<mxfile host="app.diagrams.net" agent="Mozilla/5.0 (Windows NT 10.0; Win64; x64) AppleWebKit/537.36 (KHTML, like Gecko) Chrome/135.0.0.0 Safari/537.36" version="26.2.14">
  <diagram name="Page-1" id="Og2HKvQmjunLkaLQMYB_">
    <mxGraphModel dx="2691" dy="-411" grid="1" gridSize="10" guides="1" tooltips="1" connect="1" arrows="1" fold="1" page="1" pageScale="1" pageWidth="827" pageHeight="1169" math="0" shadow="0">
      <root>
        <mxCell id="0" />
        <mxCell id="1" parent="0" />
        <mxCell id="qI9bdilrtMtzT8J89ThS-1" value="Role" style="swimlane;fontStyle=1;align=center;verticalAlign=top;childLayout=stackLayout;horizontal=1;startSize=26;horizontalStack=0;resizeParent=1;resizeParentMax=0;resizeLast=0;collapsible=1;marginBottom=0;whiteSpace=wrap;html=1;" parent="1" vertex="1">
          <mxGeometry x="20" y="1180" width="160" height="180" as="geometry" />
        </mxCell>
        <mxCell id="qI9bdilrtMtzT8J89ThS-2" value="- RoleID: Integer&lt;div&gt;- RoleType: String&lt;/div&gt;&lt;div&gt;- RoleDescription: String&lt;/div&gt;&lt;div&gt;- created_at: DateTime&lt;/div&gt;&lt;div&gt;- updated_at: DateTime&lt;/div&gt;" style="text;strokeColor=none;fillColor=none;align=left;verticalAlign=top;spacingLeft=4;spacingRight=4;overflow=hidden;rotatable=0;points=[[0,0.5],[1,0.5]];portConstraint=eastwest;whiteSpace=wrap;html=1;" parent="qI9bdilrtMtzT8J89ThS-1" vertex="1">
          <mxGeometry y="26" width="160" height="84" as="geometry" />
        </mxCell>
        <mxCell id="qI9bdilrtMtzT8J89ThS-3" value="" style="line;strokeWidth=1;fillColor=none;align=left;verticalAlign=middle;spacingTop=-1;spacingLeft=3;spacingRight=3;rotatable=0;labelPosition=right;points=[];portConstraint=eastwest;strokeColor=inherit;" parent="qI9bdilrtMtzT8J89ThS-1" vertex="1">
          <mxGeometry y="110" width="160" height="8" as="geometry" />
        </mxCell>
        <mxCell id="qI9bdilrtMtzT8J89ThS-4" value="+ insertRole()&lt;div&gt;+ search&lt;span style=&quot;background-color: transparent; color: light-dark(rgb(0, 0, 0), rgb(255, 255, 255));&quot;&gt;Role&lt;/span&gt;&lt;span style=&quot;background-color: transparent; color: light-dark(rgb(0, 0, 0), rgb(255, 255, 255));&quot;&gt;()&lt;/span&gt;&lt;/div&gt;&lt;div&gt;+ updateRole()&lt;/div&gt;" style="text;strokeColor=none;fillColor=none;align=left;verticalAlign=top;spacingLeft=4;spacingRight=4;overflow=hidden;rotatable=0;points=[[0,0.5],[1,0.5]];portConstraint=eastwest;whiteSpace=wrap;html=1;" parent="qI9bdilrtMtzT8J89ThS-1" vertex="1">
          <mxGeometry y="118" width="160" height="62" as="geometry" />
        </mxCell>
        <mxCell id="qI9bdilrtMtzT8J89ThS-5" value="Statistic" style="swimlane;fontStyle=1;align=center;verticalAlign=top;childLayout=stackLayout;horizontal=1;startSize=26;horizontalStack=0;resizeParent=1;resizeParentMax=0;resizeLast=0;collapsible=1;marginBottom=0;whiteSpace=wrap;html=1;" parent="1" vertex="1">
          <mxGeometry x="620" y="1480" width="160" height="230" as="geometry" />
        </mxCell>
        <mxCell id="qI9bdilrtMtzT8J89ThS-6" value="-StatisticID: Integer&lt;div&gt;-TotalIdea: String&lt;/div&gt;&lt;div&gt;-TotalContributers: String&lt;/div&gt;&lt;div&gt;-DepartmentID: Integer&amp;nbsp;&lt;/div&gt;&lt;div&gt;-created_at: DateTime&lt;/div&gt;&lt;div&gt;-updated_at: DateTime&lt;/div&gt;" style="text;strokeColor=none;fillColor=none;align=left;verticalAlign=top;spacingLeft=4;spacingRight=4;overflow=hidden;rotatable=0;points=[[0,0.5],[1,0.5]];portConstraint=eastwest;whiteSpace=wrap;html=1;" parent="qI9bdilrtMtzT8J89ThS-5" vertex="1">
          <mxGeometry y="26" width="160" height="104" as="geometry" />
        </mxCell>
        <mxCell id="qI9bdilrtMtzT8J89ThS-7" value="" style="line;strokeWidth=1;fillColor=none;align=left;verticalAlign=middle;spacingTop=-1;spacingLeft=3;spacingRight=3;rotatable=0;labelPosition=right;points=[];portConstraint=eastwest;strokeColor=inherit;" parent="qI9bdilrtMtzT8J89ThS-5" vertex="1">
          <mxGeometry y="130" width="160" height="8" as="geometry" />
        </mxCell>
        <mxCell id="qI9bdilrtMtzT8J89ThS-8" value="+ insertStatistic()&lt;div&gt;+ serarch&lt;span style=&quot;background-color: transparent; color: light-dark(rgb(0, 0, 0), rgb(255, 255, 255));&quot;&gt;Statistic&lt;/span&gt;&lt;span style=&quot;background-color: transparent; color: light-dark(rgb(0, 0, 0), rgb(255, 255, 255));&quot;&gt;()&lt;/span&gt;&lt;/div&gt;&lt;div&gt;+ update&lt;span style=&quot;background-color: transparent; color: light-dark(rgb(0, 0, 0), rgb(255, 255, 255));&quot;&gt;Statistic&lt;/span&gt;&lt;span style=&quot;background-color: transparent; color: light-dark(rgb(0, 0, 0), rgb(255, 255, 255));&quot;&gt;()&lt;/span&gt;&lt;/div&gt;&lt;div&gt;+ deleteStatistic90&lt;/div&gt;&lt;div&gt;+ getAllTotalIdea()&lt;/div&gt;&lt;div&gt;+ getAllTotalContributers&lt;/div&gt;" style="text;strokeColor=none;fillColor=none;align=left;verticalAlign=top;spacingLeft=4;spacingRight=4;overflow=hidden;rotatable=0;points=[[0,0.5],[1,0.5]];portConstraint=eastwest;whiteSpace=wrap;html=1;" parent="qI9bdilrtMtzT8J89ThS-5" vertex="1">
          <mxGeometry y="138" width="160" height="92" as="geometry" />
        </mxCell>
        <mxCell id="qI9bdilrtMtzT8J89ThS-10" value="User" style="swimlane;fontStyle=1;align=center;verticalAlign=top;childLayout=stackLayout;horizontal=1;startSize=26;horizontalStack=0;resizeParent=1;resizeParentMax=0;resizeLast=0;collapsible=1;marginBottom=0;whiteSpace=wrap;html=1;" parent="1" vertex="1">
          <mxGeometry x="20" y="1480" width="160" height="290" as="geometry" />
        </mxCell>
        <mxCell id="qI9bdilrtMtzT8J89ThS-11" value="&lt;font&gt;- UserID: Integer&lt;/font&gt;&lt;div&gt;&lt;font&gt;- U&lt;span style=&quot;background-color: transparent; color: light-dark(rgb(0, 0, 0), rgb(255, 255, 255));&quot;&gt;serName: String&lt;/span&gt;&lt;/font&gt;&lt;/div&gt;&lt;div&gt;&lt;font&gt;- U&lt;span style=&quot;background-color: transparent; color: light-dark(rgb(0, 0, 0), rgb(255, 255, 255));&quot;&gt;serEmail: String&lt;/span&gt;&lt;/font&gt;&lt;/div&gt;&lt;div&gt;&lt;font&gt;- UserPhone: String&lt;/font&gt;&lt;/div&gt;&lt;div&gt;&lt;font&gt;- RoleID: Integer&lt;/font&gt;&lt;/div&gt;&lt;div&gt;&lt;font&gt;- DepartmentID: Integer&lt;/font&gt;&lt;/div&gt;&lt;div&gt;&lt;font&gt;- Password: String&lt;/font&gt;&lt;/div&gt;&lt;div&gt;&lt;font&gt;- Status: String&lt;/font&gt;&lt;/div&gt;&lt;div&gt;&lt;div&gt;&lt;font&gt;- created_at: DateTime&lt;/font&gt;&lt;/div&gt;&lt;div&gt;&lt;font&gt;- updated_at: DateTime&lt;/font&gt;&lt;/div&gt;&lt;/div&gt;" style="text;strokeColor=none;fillColor=none;align=left;verticalAlign=top;spacingLeft=4;spacingRight=4;overflow=hidden;rotatable=0;points=[[0,0.5],[1,0.5]];portConstraint=eastwest;whiteSpace=wrap;html=1;" parent="qI9bdilrtMtzT8J89ThS-10" vertex="1">
          <mxGeometry y="26" width="160" height="154" as="geometry" />
        </mxCell>
        <mxCell id="qI9bdilrtMtzT8J89ThS-12" value="" style="line;strokeWidth=1;fillColor=none;align=left;verticalAlign=middle;spacingTop=-1;spacingLeft=3;spacingRight=3;rotatable=0;labelPosition=right;points=[];portConstraint=eastwest;strokeColor=inherit;" parent="qI9bdilrtMtzT8J89ThS-10" vertex="1">
          <mxGeometry y="180" width="160" height="8" as="geometry" />
        </mxCell>
        <mxCell id="qI9bdilrtMtzT8J89ThS-13" value="&lt;font&gt;+ insertUser()&lt;/font&gt;&lt;div&gt;&lt;font&gt;+ searchUser()&lt;/font&gt;&lt;/div&gt;&lt;div&gt;&lt;font&gt;+ updateUser()&lt;/font&gt;&lt;/div&gt;&lt;div&gt;&lt;font&gt;+ logInUser()&lt;/font&gt;&lt;/div&gt;&lt;div&gt;+ deactivateUser()&lt;/div&gt;&lt;div&gt;+ activateUser()&lt;/div&gt;" style="text;strokeColor=none;fillColor=none;align=left;verticalAlign=top;spacingLeft=4;spacingRight=4;overflow=hidden;rotatable=0;points=[[0,0.5],[1,0.5]];portConstraint=eastwest;whiteSpace=wrap;html=1;" parent="qI9bdilrtMtzT8J89ThS-10" vertex="1">
          <mxGeometry y="188" width="160" height="102" as="geometry" />
        </mxCell>
        <mxCell id="qI9bdilrtMtzT8J89ThS-14" value="Idea" style="swimlane;fontStyle=1;align=center;verticalAlign=top;childLayout=stackLayout;horizontal=1;startSize=26;horizontalStack=0;resizeParent=1;resizeParentMax=0;resizeLast=0;collapsible=1;marginBottom=0;whiteSpace=wrap;html=1;" parent="1" vertex="1">
          <mxGeometry x="-5" y="1880" width="210" height="330" as="geometry" />
        </mxCell>
        <mxCell id="qI9bdilrtMtzT8J89ThS-15" value="- IdearID: Integer&lt;div&gt;- UserID: Integer&lt;/div&gt;&lt;div&gt;- RequestIdeaID: Integer&lt;/div&gt;&lt;div&gt;- SubCategoryID: Integer&lt;/div&gt;&lt;div&gt;- Title: String&lt;/div&gt;&lt;div&gt;- Image1: String&lt;/div&gt;&lt;div&gt;- Image2: String&lt;/div&gt;&lt;div&gt;- Image3: String&lt;/div&gt;&lt;div&gt;- Description: String&lt;/div&gt;&lt;div&gt;- AnonymousSubmission: Boolean&lt;/div&gt;&lt;div&gt;- Status: String&lt;/div&gt;&lt;div&gt;&lt;div&gt;- created_at: DateTime&lt;/div&gt;&lt;div&gt;- updated_at: DateTime&lt;/div&gt;&lt;/div&gt;" style="text;strokeColor=none;fillColor=none;align=left;verticalAlign=top;spacingLeft=4;spacingRight=4;overflow=hidden;rotatable=0;points=[[0,0.5],[1,0.5]];portConstraint=eastwest;whiteSpace=wrap;html=1;" parent="qI9bdilrtMtzT8J89ThS-14" vertex="1">
          <mxGeometry y="26" width="210" height="194" as="geometry" />
        </mxCell>
        <mxCell id="qI9bdilrtMtzT8J89ThS-16" value="" style="line;strokeWidth=1;fillColor=none;align=left;verticalAlign=middle;spacingTop=-1;spacingLeft=3;spacingRight=3;rotatable=0;labelPosition=right;points=[];portConstraint=eastwest;strokeColor=inherit;" parent="qI9bdilrtMtzT8J89ThS-14" vertex="1">
          <mxGeometry y="220" width="210" height="8" as="geometry" />
        </mxCell>
        <mxCell id="qI9bdilrtMtzT8J89ThS-17" value="+ insertIdea()&lt;div&gt;+ searchIdea&lt;span style=&quot;background-color: transparent; color: light-dark(rgb(0, 0, 0), rgb(255, 255, 255));&quot;&gt;()&lt;/span&gt;&lt;/div&gt;&lt;div&gt;+ updateIdea()&lt;/div&gt;&lt;div&gt;+ getAllIdeas()&lt;/div&gt;&lt;div&gt;+ getIdeaByUser()&lt;/div&gt;&lt;div&gt;+ submitIdeaAnonymous()&lt;/div&gt;" style="text;strokeColor=none;fillColor=none;align=left;verticalAlign=top;spacingLeft=4;spacingRight=4;overflow=hidden;rotatable=0;points=[[0,0.5],[1,0.5]];portConstraint=eastwest;whiteSpace=wrap;html=1;" parent="qI9bdilrtMtzT8J89ThS-14" vertex="1">
          <mxGeometry y="228" width="210" height="102" as="geometry" />
        </mxCell>
        <mxCell id="qI9bdilrtMtzT8J89ThS-18" value="SubCategory" style="swimlane;fontStyle=1;align=center;verticalAlign=top;childLayout=stackLayout;horizontal=1;startSize=26;horizontalStack=0;resizeParent=1;resizeParentMax=0;resizeLast=0;collapsible=1;marginBottom=0;whiteSpace=wrap;html=1;" parent="1" vertex="1">
          <mxGeometry x="120" y="2270" width="190" height="220" as="geometry" />
        </mxCell>
        <mxCell id="qI9bdilrtMtzT8J89ThS-19" value="- SubCategoryID: Integer&lt;div&gt;- MainCategoryID: Integer&lt;/div&gt;&lt;div&gt;- SubCategoryTitle: String&lt;/div&gt;&lt;div&gt;- Description: String&lt;/div&gt;&lt;div&gt;- created_at: DateTime&lt;/div&gt;&lt;div&gt;- updated_at: DateTime&lt;/div&gt;" style="text;strokeColor=none;fillColor=none;align=left;verticalAlign=top;spacingLeft=4;spacingRight=4;overflow=hidden;rotatable=0;points=[[0,0.5],[1,0.5]];portConstraint=eastwest;whiteSpace=wrap;html=1;" parent="qI9bdilrtMtzT8J89ThS-18" vertex="1">
          <mxGeometry y="26" width="190" height="94" as="geometry" />
        </mxCell>
        <mxCell id="qI9bdilrtMtzT8J89ThS-20" value="" style="line;strokeWidth=1;fillColor=none;align=left;verticalAlign=middle;spacingTop=-1;spacingLeft=3;spacingRight=3;rotatable=0;labelPosition=right;points=[];portConstraint=eastwest;strokeColor=inherit;" parent="qI9bdilrtMtzT8J89ThS-18" vertex="1">
          <mxGeometry y="120" width="190" height="8" as="geometry" />
        </mxCell>
        <mxCell id="qI9bdilrtMtzT8J89ThS-21" value="+ insertSubCategory()&lt;div&gt;+ Delete&lt;span style=&quot;background-color: transparent; color: light-dark(rgb(0, 0, 0), rgb(255, 255, 255));&quot;&gt;SubCategory&lt;/span&gt;&lt;span style=&quot;background-color: transparent; color: light-dark(rgb(0, 0, 0), rgb(255, 255, 255));&quot;&gt;()&lt;/span&gt;&lt;/div&gt;&lt;div&gt;+ getIAlldeasBy&lt;span style=&quot;background-color: transparent; color: light-dark(rgb(0, 0, 0), rgb(255, 255, 255));&quot;&gt;SubCategory&lt;/span&gt;&lt;span style=&quot;background-color: transparent; color: light-dark(rgb(0, 0, 0), rgb(255, 255, 255));&quot;&gt;()&lt;/span&gt;&lt;/div&gt;&lt;div&gt;+ getIdeaByCategory()&lt;/div&gt;&lt;div&gt;+ getCategoryByIdea()&lt;/div&gt;" style="text;strokeColor=none;fillColor=none;align=left;verticalAlign=top;spacingLeft=4;spacingRight=4;overflow=hidden;rotatable=0;points=[[0,0.5],[1,0.5]];portConstraint=eastwest;whiteSpace=wrap;html=1;" parent="qI9bdilrtMtzT8J89ThS-18" vertex="1">
          <mxGeometry y="128" width="190" height="92" as="geometry" />
        </mxCell>
        <mxCell id="qI9bdilrtMtzT8J89ThS-22" value="IdeaComment" style="swimlane;fontStyle=1;align=center;verticalAlign=top;childLayout=stackLayout;horizontal=1;startSize=26;horizontalStack=0;resizeParent=1;resizeParentMax=0;resizeLast=0;collapsible=1;marginBottom=0;whiteSpace=wrap;html=1;" parent="1" vertex="1">
          <mxGeometry x="300" y="1730" width="200" height="240" as="geometry" />
        </mxCell>
        <mxCell id="qI9bdilrtMtzT8J89ThS-23" value="- IdeaCommentID: Integer&lt;div&gt;- IdeaCommentText: String&lt;br&gt;&lt;div&gt;&lt;span style=&quot;background-color: transparent; color: light-dark(rgb(0, 0, 0), rgb(255, 255, 255));&quot;&gt;- UserID: Integer&lt;/span&gt;&lt;/div&gt;&lt;/div&gt;&lt;div&gt;- IdeaID: Integer&lt;/div&gt;&lt;div&gt;- RequestIdeaID: Integer&lt;/div&gt;&lt;div&gt;&lt;div&gt;&lt;div&gt;- AnonymousSubmission: Boolean&lt;/div&gt;&lt;/div&gt;&lt;div&gt;- created_at: DateTime&lt;/div&gt;&lt;div&gt;- updated_at: DateTime&lt;/div&gt;&lt;/div&gt;" style="text;strokeColor=none;fillColor=none;align=left;verticalAlign=top;spacingLeft=4;spacingRight=4;overflow=hidden;rotatable=0;points=[[0,0.5],[1,0.5]];portConstraint=eastwest;whiteSpace=wrap;html=1;" parent="qI9bdilrtMtzT8J89ThS-22" vertex="1">
          <mxGeometry y="26" width="200" height="124" as="geometry" />
        </mxCell>
        <mxCell id="qI9bdilrtMtzT8J89ThS-24" value="" style="line;strokeWidth=1;fillColor=none;align=left;verticalAlign=middle;spacingTop=-1;spacingLeft=3;spacingRight=3;rotatable=0;labelPosition=right;points=[];portConstraint=eastwest;strokeColor=inherit;" parent="qI9bdilrtMtzT8J89ThS-22" vertex="1">
          <mxGeometry y="150" width="200" height="8" as="geometry" />
        </mxCell>
        <mxCell id="qI9bdilrtMtzT8J89ThS-25" value="+ inertIdeaComment()&lt;div&gt;+ searchIdeaComment()&lt;/div&gt;&lt;div&gt;+ updateIdeaComment()&lt;/div&gt;&lt;div&gt;+ deleteIdeaComment()&lt;/div&gt;" style="text;strokeColor=none;fillColor=none;align=left;verticalAlign=top;spacingLeft=4;spacingRight=4;overflow=hidden;rotatable=0;points=[[0,0.5],[1,0.5]];portConstraint=eastwest;whiteSpace=wrap;html=1;" parent="qI9bdilrtMtzT8J89ThS-22" vertex="1">
          <mxGeometry y="158" width="200" height="82" as="geometry" />
        </mxCell>
        <mxCell id="6edu0fm69JstWXTFrkUp-1" value="IdeaNotification" style="swimlane;fontStyle=1;align=center;verticalAlign=top;childLayout=stackLayout;horizontal=1;startSize=26;horizontalStack=0;resizeParent=1;resizeParentMax=0;resizeLast=0;collapsible=1;marginBottom=0;whiteSpace=wrap;html=1;" parent="1" vertex="1">
          <mxGeometry x="-350" y="1504" width="190" height="196" as="geometry" />
        </mxCell>
        <mxCell id="6edu0fm69JstWXTFrkUp-2" value="- IdeaNotificationID: Integer&lt;div&gt;- UserID: Integer&amp;nbsp;&lt;/div&gt;&lt;div&gt;- IdeaID: Integer&lt;/div&gt;&lt;div&gt;&lt;div&gt;- created_at: DateTime&lt;/div&gt;&lt;div&gt;- updated_at: DateTime&lt;/div&gt;&lt;/div&gt;" style="text;strokeColor=none;fillColor=none;align=left;verticalAlign=top;spacingLeft=4;spacingRight=4;overflow=hidden;rotatable=0;points=[[0,0.5],[1,0.5]];portConstraint=eastwest;whiteSpace=wrap;html=1;" parent="6edu0fm69JstWXTFrkUp-1" vertex="1">
          <mxGeometry y="26" width="190" height="90" as="geometry" />
        </mxCell>
        <mxCell id="6edu0fm69JstWXTFrkUp-3" value="" style="line;strokeWidth=1;fillColor=none;align=left;verticalAlign=middle;spacingTop=-1;spacingLeft=3;spacingRight=3;rotatable=0;labelPosition=right;points=[];portConstraint=eastwest;strokeColor=inherit;" parent="6edu0fm69JstWXTFrkUp-1" vertex="1">
          <mxGeometry y="116" width="190" height="8" as="geometry" />
        </mxCell>
        <mxCell id="6edu0fm69JstWXTFrkUp-4" value="+ insertIdeaNotification()&lt;div&gt;+ searchIdeaNotification()&lt;/div&gt;&lt;div&gt;+ deleteIdeaNotification()&lt;/div&gt;&lt;div&gt;+ getAllIdeaNotification()&lt;/div&gt;" style="text;strokeColor=none;fillColor=none;align=left;verticalAlign=top;spacingLeft=4;spacingRight=4;overflow=hidden;rotatable=0;points=[[0,0.5],[1,0.5]];portConstraint=eastwest;whiteSpace=wrap;html=1;" parent="6edu0fm69JstWXTFrkUp-1" vertex="1">
          <mxGeometry y="124" width="190" height="72" as="geometry" />
        </mxCell>
        <mxCell id="qI9bdilrtMtzT8J89ThS-26" value="IdeaVote" style="swimlane;fontStyle=1;align=center;verticalAlign=top;childLayout=stackLayout;horizontal=1;startSize=26;horizontalStack=0;resizeParent=1;resizeParentMax=0;resizeLast=0;collapsible=1;marginBottom=0;whiteSpace=wrap;html=1;" parent="1" vertex="1">
          <mxGeometry x="-70" y="2270" width="160" height="200" as="geometry" />
        </mxCell>
        <mxCell id="qI9bdilrtMtzT8J89ThS-27" value="- IdeaVoteID: Integer&lt;div&gt;- IdeaID: Integer&lt;/div&gt;&lt;div&gt;- UserID: Integer&lt;/div&gt;&lt;div&gt;- VoteType: Integer&lt;/div&gt;&lt;div&gt;&lt;div&gt;- created_at: DateTime&lt;/div&gt;&lt;div&gt;- updated_at: DateTime&lt;/div&gt;&lt;/div&gt;" style="text;strokeColor=none;fillColor=none;align=left;verticalAlign=top;spacingLeft=4;spacingRight=4;overflow=hidden;rotatable=0;points=[[0,0.5],[1,0.5]];portConstraint=eastwest;whiteSpace=wrap;html=1;" parent="qI9bdilrtMtzT8J89ThS-26" vertex="1">
          <mxGeometry y="26" width="160" height="94" as="geometry" />
        </mxCell>
        <mxCell id="qI9bdilrtMtzT8J89ThS-28" value="" style="line;strokeWidth=1;fillColor=none;align=left;verticalAlign=middle;spacingTop=-1;spacingLeft=3;spacingRight=3;rotatable=0;labelPosition=right;points=[];portConstraint=eastwest;strokeColor=inherit;" parent="qI9bdilrtMtzT8J89ThS-26" vertex="1">
          <mxGeometry y="120" width="160" height="8" as="geometry" />
        </mxCell>
        <mxCell id="qI9bdilrtMtzT8J89ThS-29" value="+ addVote()&lt;div&gt;+ removeVote()&lt;/div&gt;&lt;div&gt;+ getTotalVotesForIdea()&lt;/div&gt;" style="text;strokeColor=none;fillColor=none;align=left;verticalAlign=top;spacingLeft=4;spacingRight=4;overflow=hidden;rotatable=0;points=[[0,0.5],[1,0.5]];portConstraint=eastwest;whiteSpace=wrap;html=1;" parent="qI9bdilrtMtzT8J89ThS-26" vertex="1">
          <mxGeometry y="128" width="160" height="72" as="geometry" />
        </mxCell>
        <mxCell id="6edu0fm69JstWXTFrkUp-5" value="MainCategory" style="swimlane;fontStyle=1;align=center;verticalAlign=top;childLayout=stackLayout;horizontal=1;startSize=26;horizontalStack=0;resizeParent=1;resizeParentMax=0;resizeLast=0;collapsible=1;marginBottom=0;whiteSpace=wrap;html=1;" parent="1" vertex="1">
          <mxGeometry x="120" y="2560" width="160" height="200" as="geometry" />
        </mxCell>
        <mxCell id="6edu0fm69JstWXTFrkUp-6" value="- MainCategoryID: Integer&lt;div&gt;- MainCategoryTitle: String&lt;/div&gt;&lt;div&gt;- Description: String&lt;/div&gt;&lt;div&gt;- Status: String&lt;/div&gt;&lt;div&gt;- created_at: DateTime&lt;/div&gt;&lt;div&gt;- updated_at: DateTime&lt;/div&gt;" style="text;strokeColor=none;fillColor=none;align=left;verticalAlign=top;spacingLeft=4;spacingRight=4;overflow=hidden;rotatable=0;points=[[0,0.5],[1,0.5]];portConstraint=eastwest;whiteSpace=wrap;html=1;" parent="6edu0fm69JstWXTFrkUp-5" vertex="1">
          <mxGeometry y="26" width="160" height="94" as="geometry" />
        </mxCell>
        <mxCell id="6edu0fm69JstWXTFrkUp-7" value="" style="line;strokeWidth=1;fillColor=none;align=left;verticalAlign=middle;spacingTop=-1;spacingLeft=3;spacingRight=3;rotatable=0;labelPosition=right;points=[];portConstraint=eastwest;strokeColor=inherit;" parent="6edu0fm69JstWXTFrkUp-5" vertex="1">
          <mxGeometry y="120" width="160" height="8" as="geometry" />
        </mxCell>
        <mxCell id="6edu0fm69JstWXTFrkUp-8" value="+ inertMainCategory()&lt;div&gt;+ searchMainCategory()&lt;/div&gt;&lt;div&gt;+ updateMainCategory()&lt;/div&gt;&lt;div&gt;+ DeleteMainCategory()&lt;/div&gt;" style="text;strokeColor=none;fillColor=none;align=left;verticalAlign=top;spacingLeft=4;spacingRight=4;overflow=hidden;rotatable=0;points=[[0,0.5],[1,0.5]];portConstraint=eastwest;whiteSpace=wrap;html=1;" parent="6edu0fm69JstWXTFrkUp-5" vertex="1">
          <mxGeometry y="128" width="160" height="72" as="geometry" />
        </mxCell>
        <mxCell id="6edu0fm69JstWXTFrkUp-9" value="Department" style="swimlane;fontStyle=1;align=center;verticalAlign=top;childLayout=stackLayout;horizontal=1;startSize=26;horizontalStack=0;resizeParent=1;resizeParentMax=0;resizeLast=0;collapsible=1;marginBottom=0;whiteSpace=wrap;html=1;" parent="1" vertex="1">
          <mxGeometry x="320" y="1480" width="160" height="150" as="geometry" />
        </mxCell>
        <mxCell id="6edu0fm69JstWXTFrkUp-10" value="-DepartmentID: Integer&lt;div&gt;-DepartmentName: String&lt;/div&gt;&lt;div&gt;-created_at: DateTime&lt;/div&gt;&lt;div&gt;-updated_at: Datetime&lt;/div&gt;" style="text;strokeColor=none;fillColor=none;align=left;verticalAlign=top;spacingLeft=4;spacingRight=4;overflow=hidden;rotatable=0;points=[[0,0.5],[1,0.5]];portConstraint=eastwest;whiteSpace=wrap;html=1;" parent="6edu0fm69JstWXTFrkUp-9" vertex="1">
          <mxGeometry y="26" width="160" height="64" as="geometry" />
        </mxCell>
        <mxCell id="6edu0fm69JstWXTFrkUp-11" value="" style="line;strokeWidth=1;fillColor=none;align=left;verticalAlign=middle;spacingTop=-1;spacingLeft=3;spacingRight=3;rotatable=0;labelPosition=right;points=[];portConstraint=eastwest;strokeColor=inherit;" parent="6edu0fm69JstWXTFrkUp-9" vertex="1">
          <mxGeometry y="90" width="160" height="8" as="geometry" />
        </mxCell>
        <mxCell id="6edu0fm69JstWXTFrkUp-12" value="+ insertDepartment()&lt;div&gt;+ serarchDepartment()&lt;/div&gt;&lt;div&gt;+ updateDepartment()&lt;/div&gt;&lt;div&gt;&lt;br&gt;&lt;/div&gt;" style="text;strokeColor=none;fillColor=none;align=left;verticalAlign=top;spacingLeft=4;spacingRight=4;overflow=hidden;rotatable=0;points=[[0,0.5],[1,0.5]];portConstraint=eastwest;whiteSpace=wrap;html=1;" parent="6edu0fm69JstWXTFrkUp-9" vertex="1">
          <mxGeometry y="98" width="160" height="52" as="geometry" />
        </mxCell>
        <mxCell id="qI9bdilrtMtzT8J89ThS-34" value="RequestIdeas" style="swimlane;fontStyle=1;align=center;verticalAlign=top;childLayout=stackLayout;horizontal=1;startSize=26;horizontalStack=0;resizeParent=1;resizeParentMax=0;resizeLast=0;collapsible=1;marginBottom=0;whiteSpace=wrap;html=1;" parent="1" vertex="1">
          <mxGeometry x="300" y="2040" width="200" height="210" as="geometry" />
        </mxCell>
        <mxCell id="qI9bdilrtMtzT8J89ThS-35" value="- RequestIdeaID: Integer&lt;div&gt;- Title: String&lt;/div&gt;&lt;div&gt;- Description: String&lt;/div&gt;&lt;div&gt;&lt;div&gt;- IdeaClosureDate: DateTime&lt;/div&gt;&lt;div&gt;- CommentClosureDate: DateTime&lt;/div&gt;&lt;div&gt;&lt;div&gt;- created_at: DateTime&lt;/div&gt;&lt;div&gt;- updated_at: DateTime&lt;/div&gt;&lt;/div&gt;&lt;/div&gt;" style="text;strokeColor=none;fillColor=none;align=left;verticalAlign=top;spacingLeft=4;spacingRight=4;overflow=hidden;rotatable=0;points=[[0,0.5],[1,0.5]];portConstraint=eastwest;whiteSpace=wrap;html=1;" parent="qI9bdilrtMtzT8J89ThS-34" vertex="1">
          <mxGeometry y="26" width="200" height="114" as="geometry" />
        </mxCell>
        <mxCell id="qI9bdilrtMtzT8J89ThS-36" value="" style="line;strokeWidth=1;fillColor=none;align=left;verticalAlign=middle;spacingTop=-1;spacingLeft=3;spacingRight=3;rotatable=0;labelPosition=right;points=[];portConstraint=eastwest;strokeColor=inherit;" parent="qI9bdilrtMtzT8J89ThS-34" vertex="1">
          <mxGeometry y="140" width="200" height="8" as="geometry" />
        </mxCell>
        <mxCell id="qI9bdilrtMtzT8J89ThS-37" value="+ insertRequestIdea()&lt;div&gt;+ serarch&lt;span style=&quot;background-color: transparent; color: light-dark(rgb(0, 0, 0), rgb(255, 255, 255));&quot;&gt;RequestIdea&lt;/span&gt;&lt;span style=&quot;background-color: transparent; color: light-dark(rgb(0, 0, 0), rgb(255, 255, 255));&quot;&gt;()&lt;/span&gt;&lt;/div&gt;&lt;div&gt;+ update&lt;span style=&quot;background-color: transparent; color: light-dark(rgb(0, 0, 0), rgb(255, 255, 255));&quot;&gt;RequestIdea&lt;/span&gt;&lt;span style=&quot;background-color: transparent; color: light-dark(rgb(0, 0, 0), rgb(255, 255, 255));&quot;&gt;()&lt;/span&gt;&lt;/div&gt;&lt;div&gt;&lt;br&gt;&lt;/div&gt;" style="text;strokeColor=none;fillColor=none;align=left;verticalAlign=top;spacingLeft=4;spacingRight=4;overflow=hidden;rotatable=0;points=[[0,0.5],[1,0.5]];portConstraint=eastwest;whiteSpace=wrap;html=1;" parent="qI9bdilrtMtzT8J89ThS-34" vertex="1">
          <mxGeometry y="148" width="200" height="62" as="geometry" />
        </mxCell>
        <mxCell id="6edu0fm69JstWXTFrkUp-21" value="" style="endArrow=none;html=1;rounded=0;entryX=0.5;entryY=0.982;entryDx=0;entryDy=0;entryPerimeter=0;" parent="1" source="qI9bdilrtMtzT8J89ThS-10" target="qI9bdilrtMtzT8J89ThS-4" edge="1">
          <mxGeometry width="50" height="50" relative="1" as="geometry">
            <mxPoint x="90" y="1510" as="sourcePoint" />
            <mxPoint x="140" y="1460" as="targetPoint" />
          </mxGeometry>
        </mxCell>
        <mxCell id="6edu0fm69JstWXTFrkUp-22" value="1" style="text;html=1;align=center;verticalAlign=middle;whiteSpace=wrap;rounded=0;" parent="1" vertex="1">
          <mxGeometry x="100" y="1360" width="20" height="20" as="geometry" />
        </mxCell>
        <mxCell id="6edu0fm69JstWXTFrkUp-23" value="&lt;font style=&quot;font-size: 16px;&quot;&gt;*&lt;/font&gt;" style="text;html=1;align=center;verticalAlign=middle;whiteSpace=wrap;rounded=0;" parent="1" vertex="1">
          <mxGeometry x="100" y="1460" width="20" height="20" as="geometry" />
        </mxCell>
        <mxCell id="6edu0fm69JstWXTFrkUp-24" value="" style="endArrow=none;html=1;rounded=0;entryX=0;entryY=0.5;entryDx=0;entryDy=0;exitX=0.996;exitY=0.206;exitDx=0;exitDy=0;exitPerimeter=0;" parent="1" source="qI9bdilrtMtzT8J89ThS-11" target="6edu0fm69JstWXTFrkUp-10" edge="1">
          <mxGeometry width="50" height="50" relative="1" as="geometry">
            <mxPoint x="110" y="1540" as="sourcePoint" />
            <mxPoint x="160" y="1490" as="targetPoint" />
          </mxGeometry>
        </mxCell>
        <mxCell id="6edu0fm69JstWXTFrkUp-25" value="1" style="text;html=1;align=center;verticalAlign=middle;whiteSpace=wrap;rounded=0;" parent="1" vertex="1">
          <mxGeometry x="300" y="1520" width="20" height="20" as="geometry" />
        </mxCell>
        <mxCell id="6edu0fm69JstWXTFrkUp-26" value="&lt;font style=&quot;font-size: 16px;&quot;&gt;*&lt;/font&gt;" style="text;html=1;align=center;verticalAlign=middle;whiteSpace=wrap;rounded=0;" parent="1" vertex="1">
          <mxGeometry x="180" y="1520" width="20" height="20" as="geometry" />
        </mxCell>
        <mxCell id="6edu0fm69JstWXTFrkUp-28" value="" style="endArrow=none;html=1;rounded=0;entryX=0;entryY=0.5;entryDx=0;entryDy=0;exitX=0.996;exitY=0.206;exitDx=0;exitDy=0;exitPerimeter=0;" parent="1" edge="1">
          <mxGeometry width="50" height="50" relative="1" as="geometry">
            <mxPoint x="480" y="1539" as="sourcePoint" />
            <mxPoint x="621" y="1539" as="targetPoint" />
          </mxGeometry>
        </mxCell>
        <mxCell id="6edu0fm69JstWXTFrkUp-29" value="1" style="text;html=1;align=center;verticalAlign=middle;whiteSpace=wrap;rounded=0;" parent="1" vertex="1">
          <mxGeometry x="480" y="1520" width="20" height="20" as="geometry" />
        </mxCell>
        <mxCell id="6edu0fm69JstWXTFrkUp-32" value="&lt;font style=&quot;font-size: 16px;&quot;&gt;*&lt;/font&gt;" style="text;html=1;align=center;verticalAlign=middle;whiteSpace=wrap;rounded=0;" parent="1" vertex="1">
          <mxGeometry x="600" y="1528" width="20" height="12" as="geometry" />
        </mxCell>
        <mxCell id="6edu0fm69JstWXTFrkUp-31" value="" style="endArrow=none;html=1;rounded=0;entryX=0;entryY=0.5;entryDx=0;entryDy=0;exitX=0.996;exitY=0.206;exitDx=0;exitDy=0;exitPerimeter=0;" parent="1" edge="1">
          <mxGeometry width="50" height="50" relative="1" as="geometry">
            <mxPoint x="480" y="1539" as="sourcePoint" />
            <mxPoint x="621" y="1539" as="targetPoint" />
          </mxGeometry>
        </mxCell>
        <mxCell id="6edu0fm69JstWXTFrkUp-33" value="" style="endArrow=none;html=1;rounded=0;exitX=0.51;exitY=0.993;exitDx=0;exitDy=0;exitPerimeter=0;" parent="1" source="qI9bdilrtMtzT8J89ThS-13" edge="1">
          <mxGeometry width="50" height="50" relative="1" as="geometry">
            <mxPoint x="170" y="1780" as="sourcePoint" />
            <mxPoint x="102" y="1880" as="targetPoint" />
          </mxGeometry>
        </mxCell>
        <mxCell id="6edu0fm69JstWXTFrkUp-34" value="1" style="text;html=1;align=center;verticalAlign=middle;whiteSpace=wrap;rounded=0;" parent="1" vertex="1">
          <mxGeometry x="100" y="1770" width="20" height="20" as="geometry" />
        </mxCell>
        <mxCell id="6edu0fm69JstWXTFrkUp-35" value="&lt;font style=&quot;font-size: 16px;&quot;&gt;*&lt;/font&gt;" style="text;html=1;align=center;verticalAlign=middle;whiteSpace=wrap;rounded=0;" parent="1" vertex="1">
          <mxGeometry x="100" y="1860" width="20" height="20" as="geometry" />
        </mxCell>
        <mxCell id="6edu0fm69JstWXTFrkUp-36" value="" style="endArrow=none;html=1;rounded=0;entryX=0.179;entryY=0.993;entryDx=0;entryDy=0;entryPerimeter=0;exitX=0.642;exitY=-0.006;exitDx=0;exitDy=0;exitPerimeter=0;" parent="1" source="qI9bdilrtMtzT8J89ThS-26" target="qI9bdilrtMtzT8J89ThS-17" edge="1">
          <mxGeometry width="50" height="50" relative="1" as="geometry">
            <mxPoint x="33" y="2260" as="sourcePoint" />
            <mxPoint x="10" y="2280" as="targetPoint" />
          </mxGeometry>
        </mxCell>
        <mxCell id="6edu0fm69JstWXTFrkUp-38" value="" style="endArrow=none;html=1;rounded=0;entryX=0.5;entryY=0;entryDx=0;entryDy=0;exitX=0;exitY=0;exitDx=0;exitDy=0;" parent="1" source="6edu0fm69JstWXTFrkUp-70" target="6edu0fm69JstWXTFrkUp-5" edge="1">
          <mxGeometry width="50" height="50" relative="1" as="geometry">
            <mxPoint x="160" y="2480" as="sourcePoint" />
            <mxPoint x="210" y="2430" as="targetPoint" />
          </mxGeometry>
        </mxCell>
        <mxCell id="6edu0fm69JstWXTFrkUp-39" value="" style="endArrow=none;html=1;rounded=0;entryX=1;entryY=0.75;entryDx=0;entryDy=0;exitX=0.997;exitY=0.102;exitDx=0;exitDy=0;exitPerimeter=0;" parent="1" target="6edu0fm69JstWXTFrkUp-58" edge="1">
          <mxGeometry width="50" height="50" relative="1" as="geometry">
            <mxPoint x="204.37000000000012" y="1933.688" as="sourcePoint" />
            <mxPoint x="299.39999999999986" y="1932.536" as="targetPoint" />
          </mxGeometry>
        </mxCell>
        <mxCell id="6edu0fm69JstWXTFrkUp-37" value="" style="endArrow=none;html=1;rounded=0;exitX=0.642;exitY=-0.006;exitDx=0;exitDy=0;exitPerimeter=0;" parent="1" edge="1">
          <mxGeometry width="50" height="50" relative="1" as="geometry">
            <mxPoint x="170" y="2270" as="sourcePoint" />
            <mxPoint x="170" y="2210" as="targetPoint" />
          </mxGeometry>
        </mxCell>
        <mxCell id="qI9bdilrtMtzT8J89ThS-45" value="" style="line;strokeWidth=1;fillColor=none;align=left;verticalAlign=middle;spacingTop=-1;spacingLeft=3;spacingRight=3;rotatable=0;labelPosition=right;points=[];portConstraint=eastwest;strokeColor=inherit;" parent="1" vertex="1">
          <mxGeometry x="-160" y="1534" width="180" height="8" as="geometry" />
        </mxCell>
        <mxCell id="6edu0fm69JstWXTFrkUp-40" value="" style="endArrow=none;html=1;rounded=0;exitX=0.997;exitY=0.102;exitDx=0;exitDy=0;exitPerimeter=0;" parent="1" edge="1">
          <mxGeometry width="50" height="50" relative="1" as="geometry">
            <mxPoint x="180.0000000000001" y="1752.998" as="sourcePoint" />
            <mxPoint x="300" y="1753" as="targetPoint" />
          </mxGeometry>
        </mxCell>
        <mxCell id="qI9bdilrtMtzT8J89ThS-46" value="1" style="text;html=1;align=center;verticalAlign=middle;whiteSpace=wrap;rounded=0;" parent="1" vertex="1">
          <mxGeometry x="-5" y="1520" width="20" height="20" as="geometry" />
        </mxCell>
        <mxCell id="qI9bdilrtMtzT8J89ThS-47" value="&lt;font style=&quot;font-size: 16px;&quot;&gt;*&lt;/font&gt;" style="text;html=1;align=center;verticalAlign=middle;whiteSpace=wrap;rounded=0;" parent="1" vertex="1">
          <mxGeometry x="-160" y="1524" width="20" height="20" as="geometry" />
        </mxCell>
        <mxCell id="6edu0fm69JstWXTFrkUp-41" value="" style="endArrow=none;html=1;rounded=0;exitX=0.5;exitY=0;exitDx=0;exitDy=0;entryX=0.496;entryY=1.001;entryDx=0;entryDy=0;entryPerimeter=0;" parent="1" source="qI9bdilrtMtzT8J89ThS-34" target="qI9bdilrtMtzT8J89ThS-25" edge="1">
          <mxGeometry width="50" height="50" relative="1" as="geometry">
            <mxPoint x="420" y="2030" as="sourcePoint" />
            <mxPoint x="400" y="1980" as="targetPoint" />
          </mxGeometry>
        </mxCell>
        <mxCell id="6edu0fm69JstWXTFrkUp-42" value="" style="endArrow=none;html=1;rounded=0;exitX=0.005;exitY=0.453;exitDx=0;exitDy=0;exitPerimeter=0;" parent="1" source="qI9bdilrtMtzT8J89ThS-35" edge="1">
          <mxGeometry width="50" height="50" relative="1" as="geometry">
            <mxPoint x="315" y="2120" as="sourcePoint" />
            <mxPoint x="205" y="2118" as="targetPoint" />
          </mxGeometry>
        </mxCell>
        <mxCell id="6edu0fm69JstWXTFrkUp-45" value="" style="endArrow=none;html=1;rounded=0;exitX=0.985;exitY=0.117;exitDx=0;exitDy=0;exitPerimeter=0;" parent="1" edge="1">
          <mxGeometry width="50" height="50" relative="1" as="geometry">
            <mxPoint x="-240.00000000000009" y="1810.378" as="sourcePoint" />
            <mxPoint x="10" y="1810" as="targetPoint" />
          </mxGeometry>
        </mxCell>
        <mxCell id="6edu0fm69JstWXTFrkUp-46" value="" style="endArrow=none;html=1;rounded=0;exitX=0.51;exitY=0.993;exitDx=0;exitDy=0;exitPerimeter=0;" parent="1" edge="1">
          <mxGeometry width="50" height="50" relative="1" as="geometry">
            <mxPoint x="-240.48000000000002" y="1700" as="sourcePoint" />
            <mxPoint x="-240" y="1810" as="targetPoint" />
          </mxGeometry>
        </mxCell>
        <mxCell id="6edu0fm69JstWXTFrkUp-47" value="" style="endArrow=none;html=1;rounded=0;exitX=0.51;exitY=0.993;exitDx=0;exitDy=0;exitPerimeter=0;" parent="1" edge="1">
          <mxGeometry width="50" height="50" relative="1" as="geometry">
            <mxPoint x="9.759999999999991" y="1810" as="sourcePoint" />
            <mxPoint x="10" y="1880" as="targetPoint" />
          </mxGeometry>
        </mxCell>
        <mxCell id="6edu0fm69JstWXTFrkUp-48" value="1" style="text;html=1;align=center;verticalAlign=middle;whiteSpace=wrap;rounded=0;" parent="1" vertex="1">
          <mxGeometry x="10" y="1860" width="20" height="20" as="geometry" />
        </mxCell>
        <mxCell id="6edu0fm69JstWXTFrkUp-49" value="&lt;font style=&quot;font-size: 16px;&quot;&gt;*&lt;/font&gt;" style="text;html=1;align=center;verticalAlign=middle;whiteSpace=wrap;rounded=0;" parent="1" vertex="1">
          <mxGeometry x="-240" y="1710" width="20" height="20" as="geometry" />
        </mxCell>
        <mxCell id="qI9bdilrtMtzT8J89ThS-54" value="" style="line;strokeWidth=1;fillColor=none;align=left;verticalAlign=middle;spacingTop=-1;spacingLeft=3;spacingRight=3;rotatable=0;labelPosition=right;points=[];portConstraint=eastwest;strokeColor=inherit;" parent="1" vertex="1">
          <mxGeometry x="-450" y="2270" width="380" height="100" as="geometry" />
        </mxCell>
        <mxCell id="6edu0fm69JstWXTFrkUp-51" value="1" style="text;html=1;align=center;verticalAlign=middle;whiteSpace=wrap;rounded=0;" parent="1" vertex="1">
          <mxGeometry x="280" y="2100" width="20" height="20" as="geometry" />
        </mxCell>
        <mxCell id="6edu0fm69JstWXTFrkUp-52" value="&lt;font style=&quot;font-size: 16px;&quot;&gt;*&lt;/font&gt;" style="text;html=1;align=center;verticalAlign=middle;whiteSpace=wrap;rounded=0;" parent="1" vertex="1">
          <mxGeometry x="205" y="2102" width="20" height="20" as="geometry" />
        </mxCell>
        <mxCell id="6edu0fm69JstWXTFrkUp-53" value="&lt;font style=&quot;font-size: 16px;&quot;&gt;*&lt;/font&gt;" style="text;html=1;align=center;verticalAlign=middle;whiteSpace=wrap;rounded=0;" parent="1" vertex="1">
          <mxGeometry x="280" y="1739" width="20" height="20" as="geometry" />
        </mxCell>
        <mxCell id="6edu0fm69JstWXTFrkUp-56" value="1" style="text;html=1;align=center;verticalAlign=middle;whiteSpace=wrap;rounded=0;" parent="1" vertex="1">
          <mxGeometry x="180" y="1734" width="20" height="20" as="geometry" />
        </mxCell>
        <mxCell id="6edu0fm69JstWXTFrkUp-57" value="1" style="text;html=1;align=center;verticalAlign=middle;whiteSpace=wrap;rounded=0;" parent="1" vertex="1">
          <mxGeometry x="205" y="1916" width="20" height="20" as="geometry" />
        </mxCell>
        <mxCell id="6edu0fm69JstWXTFrkUp-58" value="&lt;font style=&quot;font-size: 16px;&quot;&gt;*&lt;/font&gt;" style="text;html=1;align=center;verticalAlign=middle;whiteSpace=wrap;rounded=0;" parent="1" vertex="1">
          <mxGeometry x="280" y="1920" width="20" height="20" as="geometry" />
        </mxCell>
        <mxCell id="6edu0fm69JstWXTFrkUp-59" value="&lt;font style=&quot;font-size: 16px;&quot;&gt;*&lt;/font&gt;" style="text;html=1;align=center;verticalAlign=middle;whiteSpace=wrap;rounded=0;" parent="1" vertex="1">
          <mxGeometry x="398" y="1970" width="20" height="20" as="geometry" />
        </mxCell>
        <mxCell id="6edu0fm69JstWXTFrkUp-60" value="1" style="text;html=1;align=center;verticalAlign=middle;whiteSpace=wrap;rounded=0;" parent="1" vertex="1">
          <mxGeometry x="398" y="2020" width="20" height="20" as="geometry" />
        </mxCell>
        <mxCell id="6edu0fm69JstWXTFrkUp-61" value="" style="endArrow=none;html=1;rounded=0;exitX=0.642;exitY=-0.006;exitDx=0;exitDy=0;exitPerimeter=0;" parent="1" edge="1">
          <mxGeometry width="50" height="50" relative="1" as="geometry">
            <mxPoint x="-450" y="2320" as="sourcePoint" />
            <mxPoint x="-450" y="1440" as="targetPoint" />
          </mxGeometry>
        </mxCell>
        <mxCell id="6edu0fm69JstWXTFrkUp-62" value="" style="line;strokeWidth=1;fillColor=none;align=left;verticalAlign=middle;spacingTop=-1;spacingLeft=3;spacingRight=3;rotatable=0;labelPosition=right;points=[];portConstraint=eastwest;strokeColor=inherit;" parent="1" vertex="1">
          <mxGeometry x="-450" y="1436" width="490" height="8" as="geometry" />
        </mxCell>
        <mxCell id="6edu0fm69JstWXTFrkUp-63" value="" style="endArrow=none;html=1;rounded=0;" parent="1" edge="1">
          <mxGeometry width="50" height="50" relative="1" as="geometry">
            <mxPoint x="40" y="1481" as="sourcePoint" />
            <mxPoint x="40" y="1440" as="targetPoint" />
          </mxGeometry>
        </mxCell>
        <mxCell id="6edu0fm69JstWXTFrkUp-64" value="1" style="text;html=1;align=center;verticalAlign=middle;whiteSpace=wrap;rounded=0;" parent="1" vertex="1">
          <mxGeometry x="40" y="1460" width="20" height="20" as="geometry" />
        </mxCell>
        <mxCell id="6edu0fm69JstWXTFrkUp-65" value="&lt;font style=&quot;font-size: 16px;&quot;&gt;*&lt;/font&gt;" style="text;html=1;align=center;verticalAlign=middle;whiteSpace=wrap;rounded=0;" parent="1" vertex="1">
          <mxGeometry x="-90" y="2306" width="20" height="20" as="geometry" />
        </mxCell>
        <mxCell id="qI9bdilrtMtzT8J89ThS-62" value="CommentNotification" style="swimlane;fontStyle=1;align=center;verticalAlign=top;childLayout=stackLayout;horizontal=1;startSize=26;horizontalStack=0;resizeParent=1;resizeParentMax=0;resizeLast=0;collapsible=1;marginBottom=0;whiteSpace=wrap;html=1;" parent="1" vertex="1">
          <mxGeometry x="620" y="1730" width="230" height="180" as="geometry" />
        </mxCell>
        <mxCell id="qI9bdilrtMtzT8J89ThS-63" value="- CommentNotificationID: Integer&lt;div&gt;- IdeaCommentID: Integer&lt;/div&gt;&lt;div&gt;&lt;div&gt;- created_at: DateTime&lt;/div&gt;&lt;div&gt;- updated_at: DateTime&lt;/div&gt;&lt;/div&gt;" style="text;strokeColor=none;fillColor=none;align=left;verticalAlign=top;spacingLeft=4;spacingRight=4;overflow=hidden;rotatable=0;points=[[0,0.5],[1,0.5]];portConstraint=eastwest;whiteSpace=wrap;html=1;" parent="qI9bdilrtMtzT8J89ThS-62" vertex="1">
          <mxGeometry y="26" width="230" height="74" as="geometry" />
        </mxCell>
        <mxCell id="qI9bdilrtMtzT8J89ThS-64" value="" style="line;strokeWidth=1;fillColor=none;align=left;verticalAlign=middle;spacingTop=-1;spacingLeft=3;spacingRight=3;rotatable=0;labelPosition=right;points=[];portConstraint=eastwest;strokeColor=inherit;" parent="qI9bdilrtMtzT8J89ThS-62" vertex="1">
          <mxGeometry y="100" width="230" height="8" as="geometry" />
        </mxCell>
        <mxCell id="qI9bdilrtMtzT8J89ThS-65" value="+ insertCommentNotification()&lt;div&gt;+ searchCommentNotification()&lt;/div&gt;&lt;div&gt;+ deleteCommentNotification()&lt;/div&gt;&lt;div&gt;+ getAllCommentNotification()&lt;/div&gt;" style="text;strokeColor=none;fillColor=none;align=left;verticalAlign=top;spacingLeft=4;spacingRight=4;overflow=hidden;rotatable=0;points=[[0,0.5],[1,0.5]];portConstraint=eastwest;whiteSpace=wrap;html=1;" parent="qI9bdilrtMtzT8J89ThS-62" vertex="1">
          <mxGeometry y="108" width="230" height="72" as="geometry" />
        </mxCell>
        <mxCell id="6edu0fm69JstWXTFrkUp-66" value="1" style="text;html=1;align=center;verticalAlign=middle;whiteSpace=wrap;rounded=0;" parent="1" vertex="1">
          <mxGeometry x="30" y="2210" width="20" height="20" as="geometry" />
        </mxCell>
        <mxCell id="6edu0fm69JstWXTFrkUp-67" value="&lt;font style=&quot;font-size: 16px;&quot;&gt;*&lt;/font&gt;" style="text;html=1;align=center;verticalAlign=middle;whiteSpace=wrap;rounded=0;" parent="1" vertex="1">
          <mxGeometry x="30" y="2256" width="20" height="20" as="geometry" />
        </mxCell>
        <mxCell id="6edu0fm69JstWXTFrkUp-68" value="&lt;font style=&quot;font-size: 16px;&quot;&gt;*&lt;/font&gt;" style="text;html=1;align=center;verticalAlign=middle;whiteSpace=wrap;rounded=0;" parent="1" vertex="1">
          <mxGeometry x="170" y="2210" width="20" height="20" as="geometry" />
        </mxCell>
        <mxCell id="6edu0fm69JstWXTFrkUp-69" value="1" style="text;html=1;align=center;verticalAlign=middle;whiteSpace=wrap;rounded=0;" parent="1" vertex="1">
          <mxGeometry x="170" y="2250" width="20" height="20" as="geometry" />
        </mxCell>
        <mxCell id="6edu0fm69JstWXTFrkUp-70" value="&lt;font style=&quot;font-size: 16px;&quot;&gt;*&lt;/font&gt;" style="text;html=1;align=center;verticalAlign=middle;whiteSpace=wrap;rounded=0;" parent="1" vertex="1">
          <mxGeometry x="200" y="2490" width="20" height="20" as="geometry" />
        </mxCell>
        <mxCell id="6edu0fm69JstWXTFrkUp-71" value="1" style="text;html=1;align=center;verticalAlign=middle;whiteSpace=wrap;rounded=0;" parent="1" vertex="1">
          <mxGeometry x="200" y="2540" width="20" height="20" as="geometry" />
        </mxCell>
        <mxCell id="qI9bdilrtMtzT8J89ThS-162" value="" style="endArrow=none;html=1;rounded=0;exitX=0.997;exitY=0.102;exitDx=0;exitDy=0;exitPerimeter=0;" parent="1" edge="1">
          <mxGeometry width="50" height="50" relative="1" as="geometry">
            <mxPoint x="500" y="1770" as="sourcePoint" />
            <mxPoint x="619.9999999999999" y="1770.002" as="targetPoint" />
          </mxGeometry>
        </mxCell>
        <mxCell id="6edu0fm69JstWXTFrkUp-73" value="&lt;font style=&quot;font-size: 16px;&quot;&gt;*&lt;/font&gt;" style="text;html=1;align=center;verticalAlign=middle;whiteSpace=wrap;rounded=0;" parent="1" vertex="1">
          <mxGeometry x="598" y="1757" width="20" height="20" as="geometry" />
        </mxCell>
        <mxCell id="6edu0fm69JstWXTFrkUp-74" value="1" style="text;html=1;align=center;verticalAlign=middle;whiteSpace=wrap;rounded=0;" parent="1" vertex="1">
          <mxGeometry x="500" y="1754" width="20" height="20" as="geometry" />
        </mxCell>
        <mxCell id="EtU7es0Pb0yto69cpXa6-2" value="Announcement" style="swimlane;fontStyle=1;align=center;verticalAlign=top;childLayout=stackLayout;horizontal=1;startSize=26;horizontalStack=0;resizeParent=1;resizeParentMax=0;resizeLast=0;collapsible=1;marginBottom=0;whiteSpace=wrap;html=1;" parent="1" vertex="1">
          <mxGeometry x="320" y="1200" width="160" height="180" as="geometry" />
        </mxCell>
        <mxCell id="EtU7es0Pb0yto69cpXa6-3" value="&lt;font&gt;- AnnouncementID: Integer&lt;/font&gt;&lt;div&gt;&lt;font&gt;- DepartmentID: Integer&lt;/font&gt;&lt;/div&gt;&lt;div&gt;&lt;font&gt;-&amp;nbsp;&lt;span style=&quot;font-family: sans-serif; text-wrap-mode: nowrap; background-color: rgb(253, 253, 254);&quot;&gt;announce_title&lt;/span&gt;: String&lt;/font&gt;&lt;/div&gt;&lt;div&gt;&lt;font&gt;-&amp;nbsp;&lt;span style=&quot;background-color: rgb(253, 253, 254); font-family: sans-serif; text-wrap-mode: nowrap; color: light-dark(rgb(0, 0, 0), rgb(255, 255, 255));&quot;&gt;description:String&lt;/span&gt;&lt;/font&gt;&lt;/div&gt;&lt;div&gt;&lt;font&gt;- created_at: DateTime&lt;/font&gt;&lt;/div&gt;&lt;div&gt;&lt;font&gt;- updated_at: DateTime&lt;/font&gt;&lt;/div&gt;" style="text;strokeColor=none;fillColor=none;align=left;verticalAlign=top;spacingLeft=4;spacingRight=4;overflow=hidden;rotatable=0;points=[[0,0.5],[1,0.5]];portConstraint=eastwest;whiteSpace=wrap;html=1;" parent="EtU7es0Pb0yto69cpXa6-2" vertex="1">
          <mxGeometry y="26" width="160" height="94" as="geometry" />
        </mxCell>
        <mxCell id="EtU7es0Pb0yto69cpXa6-4" value="" style="line;strokeWidth=1;fillColor=none;align=left;verticalAlign=middle;spacingTop=-1;spacingLeft=3;spacingRight=3;rotatable=0;labelPosition=right;points=[];portConstraint=eastwest;strokeColor=inherit;" parent="EtU7es0Pb0yto69cpXa6-2" vertex="1">
          <mxGeometry y="120" width="160" height="8" as="geometry" />
        </mxCell>
        <mxCell id="EtU7es0Pb0yto69cpXa6-5" value="+ insertAnnouncement()&lt;div&gt;+ getAnnouncement()&lt;/div&gt;" style="text;strokeColor=none;fillColor=none;align=left;verticalAlign=top;spacingLeft=4;spacingRight=4;overflow=hidden;rotatable=0;points=[[0,0.5],[1,0.5]];portConstraint=eastwest;whiteSpace=wrap;html=1;" parent="EtU7es0Pb0yto69cpXa6-2" vertex="1">
          <mxGeometry y="128" width="160" height="52" as="geometry" />
        </mxCell>
        <mxCell id="EtU7es0Pb0yto69cpXa6-6" style="edgeStyle=orthogonalEdgeStyle;rounded=0;orthogonalLoop=1;jettySize=auto;html=1;exitX=0.5;exitY=0;exitDx=0;exitDy=0;entryX=0.504;entryY=0.994;entryDx=0;entryDy=0;entryPerimeter=0;endArrow=none;startFill=0;" parent="1" source="6edu0fm69JstWXTFrkUp-9" target="EtU7es0Pb0yto69cpXa6-5" edge="1">
          <mxGeometry relative="1" as="geometry" />
        </mxCell>
        <mxCell id="EtU7es0Pb0yto69cpXa6-7" value="&lt;font style=&quot;font-size: 16px;&quot;&gt;*&lt;/font&gt;" style="text;html=1;align=center;verticalAlign=middle;whiteSpace=wrap;rounded=0;" parent="1" vertex="1">
          <mxGeometry x="378" y="1380" width="20" height="20" as="geometry" />
        </mxCell>
        <mxCell id="EtU7es0Pb0yto69cpXa6-8" value="1" style="text;html=1;align=center;verticalAlign=middle;whiteSpace=wrap;rounded=0;" parent="1" vertex="1">
          <mxGeometry x="378" y="1460" width="20" height="20" as="geometry" />
        </mxCell>
        <mxCell id="EtU7es0Pb0yto69cpXa6-10" value="" style="rounded=0;whiteSpace=wrap;html=1;" parent="1" vertex="1">
          <mxGeometry x="-440" y="2880" width="380" height="670" as="geometry" />
        </mxCell>
        <mxCell id="EtU7es0Pb0yto69cpXa6-11" value="Manage Categories" style="ellipse;whiteSpace=wrap;html=1;" parent="1" vertex="1">
          <mxGeometry x="-395" y="2950" width="280" height="110" as="geometry" />
        </mxCell>
        <mxCell id="EtU7es0Pb0yto69cpXa6-14" value="Manage Ideas" style="ellipse;whiteSpace=wrap;html=1;" parent="1" vertex="1">
          <mxGeometry x="-395" y="3100" width="280" height="110" as="geometry" />
        </mxCell>
        <mxCell id="EtU7es0Pb0yto69cpXa6-15" value="Manage Staffs" style="ellipse;whiteSpace=wrap;html=1;" parent="1" vertex="1">
          <mxGeometry x="-395" y="3250" width="280" height="110" as="geometry" />
        </mxCell>
        <mxCell id="EtU7es0Pb0yto69cpXa6-16" value="Manage Idea Report by Departments" style="ellipse;whiteSpace=wrap;html=1;" parent="1" vertex="1">
          <mxGeometry x="-385" y="3397" width="280" height="110" as="geometry" />
        </mxCell>
        <mxCell id="EtU7es0Pb0yto69cpXa6-17" value="QA Manager" style="shape=umlActor;verticalLabelPosition=bottom;verticalAlign=top;html=1;outlineConnect=0;" parent="1" vertex="1">
          <mxGeometry x="-640" y="3250" width="60" height="137" as="geometry" />
        </mxCell>
        <mxCell id="EtU7es0Pb0yto69cpXa6-20" value="" style="rounded=0;whiteSpace=wrap;html=1;" parent="1" vertex="1">
          <mxGeometry x="330" y="2877" width="400" height="670" as="geometry" />
        </mxCell>
        <mxCell id="EtU7es0Pb0yto69cpXa6-21" value="Manage Users" style="ellipse;whiteSpace=wrap;html=1;" parent="1" vertex="1">
          <mxGeometry x="395" y="2950" width="280" height="110" as="geometry" />
        </mxCell>
        <mxCell id="EtU7es0Pb0yto69cpXa6-22" value="Manage Request Ideas" style="ellipse;whiteSpace=wrap;html=1;" parent="1" vertex="1">
          <mxGeometry x="395" y="3100" width="280" height="110" as="geometry" />
        </mxCell>
        <mxCell id="EtU7es0Pb0yto69cpXa6-23" value="Manage Idea Reports" style="ellipse;whiteSpace=wrap;html=1;" parent="1" vertex="1">
          <mxGeometry x="395" y="3250" width="280" height="110" as="geometry" />
        </mxCell>
        <mxCell id="EtU7es0Pb0yto69cpXa6-24" value="Manage Departments" style="ellipse;whiteSpace=wrap;html=1;" parent="1" vertex="1">
          <mxGeometry x="405" y="3397" width="280" height="110" as="geometry" />
        </mxCell>
        <mxCell id="EtU7es0Pb0yto69cpXa6-25" value="Admin" style="shape=umlActor;verticalLabelPosition=bottom;verticalAlign=top;html=1;outlineConnect=0;" parent="1" vertex="1">
          <mxGeometry x="150" y="3086.5" width="70" height="137" as="geometry" />
        </mxCell>
        <mxCell id="EtU7es0Pb0yto69cpXa6-27" value="" style="rounded=0;whiteSpace=wrap;html=1;" parent="1" vertex="1">
          <mxGeometry x="1100" y="2870" width="420" height="680" as="geometry" />
        </mxCell>
        <mxCell id="EtU7es0Pb0yto69cpXa6-28" value="Manage Categories" style="ellipse;whiteSpace=wrap;html=1;" parent="1" vertex="1">
          <mxGeometry x="1171" y="2957" width="280" height="110" as="geometry" />
        </mxCell>
        <mxCell id="EtU7es0Pb0yto69cpXa6-29" value="Manage Idea Reports" style="ellipse;whiteSpace=wrap;html=1;" parent="1" vertex="1">
          <mxGeometry x="1171" y="3107" width="280" height="110" as="geometry" />
        </mxCell>
        <mxCell id="EtU7es0Pb0yto69cpXa6-30" value="Manage Staffs" style="ellipse;whiteSpace=wrap;html=1;" parent="1" vertex="1">
          <mxGeometry x="1171" y="3257" width="280" height="110" as="geometry" />
        </mxCell>
        <mxCell id="EtU7es0Pb0yto69cpXa6-32" value="QA-Coordinator" style="shape=umlActor;verticalLabelPosition=bottom;verticalAlign=top;html=1;outlineConnect=0;" parent="1" vertex="1">
          <mxGeometry x="940" y="3143.5" width="71" height="137" as="geometry" />
        </mxCell>
        <mxCell id="EtU7es0Pb0yto69cpXa6-34" value="" style="rounded=0;whiteSpace=wrap;html=1;" parent="1" vertex="1">
          <mxGeometry x="-450" y="3630" width="380" height="830" as="geometry" />
        </mxCell>
        <mxCell id="EtU7es0Pb0yto69cpXa6-35" value="&lt;font style=&quot;font-size: 18px;&quot;&gt;Idea Feed&amp;nbsp;&lt;/font&gt;" style="ellipse;whiteSpace=wrap;html=1;" parent="1" vertex="1">
          <mxGeometry x="-400" y="3780" width="280" height="110" as="geometry" />
        </mxCell>
        <mxCell id="EtU7es0Pb0yto69cpXa6-36" value="&lt;font style=&quot;font-size: 18px;&quot;&gt;Making contributions&lt;/font&gt;" style="ellipse;whiteSpace=wrap;html=1;" parent="1" vertex="1">
          <mxGeometry x="-400" y="3920" width="280" height="110" as="geometry" />
        </mxCell>
        <mxCell id="EtU7es0Pb0yto69cpXa6-37" value="&lt;font style=&quot;font-size: 18px;&quot;&gt;Most Like&lt;/font&gt;" style="ellipse;whiteSpace=wrap;html=1;" parent="1" vertex="1">
          <mxGeometry x="-395" y="4060" width="280" height="110" as="geometry" />
        </mxCell>
        <mxCell id="EtU7es0Pb0yto69cpXa6-38" value="&lt;font style=&quot;font-size: 18px;&quot;&gt;View announcements&lt;/font&gt;" style="ellipse;whiteSpace=wrap;html=1;" parent="1" vertex="1">
          <mxGeometry x="-395" y="4200" width="280" height="110" as="geometry" />
        </mxCell>
        <mxCell id="EtU7es0Pb0yto69cpXa6-39" value="&lt;font style=&quot;font-size: 18px;&quot;&gt;Staff&lt;/font&gt;" style="shape=umlActor;verticalLabelPosition=bottom;verticalAlign=top;html=1;outlineConnect=0;" parent="1" vertex="1">
          <mxGeometry x="-645" y="3900" width="105" height="187" as="geometry" />
        </mxCell>
        <mxCell id="EtU7es0Pb0yto69cpXa6-41" value="&lt;font style=&quot;font-size: 18px;&quot;&gt;Submit Ideas&lt;/font&gt;" style="ellipse;whiteSpace=wrap;html=1;" parent="1" vertex="1">
          <mxGeometry x="-395" y="3650" width="280" height="110" as="geometry" />
        </mxCell>
        <mxCell id="mUs6Y_NVp6WHR6xVFkCz-1" value="" style="endArrow=none;html=1;rounded=0;exitX=0.054;exitY=0.727;exitDx=0;exitDy=0;exitPerimeter=0;" parent="1" source="EtU7es0Pb0yto69cpXa6-11" target="EtU7es0Pb0yto69cpXa6-17" edge="1">
          <mxGeometry width="50" height="50" relative="1" as="geometry">
            <mxPoint x="-120" y="3090" as="sourcePoint" />
            <mxPoint x="-70" y="3040" as="targetPoint" />
          </mxGeometry>
        </mxCell>
        <mxCell id="mUs6Y_NVp6WHR6xVFkCz-2" value="" style="endArrow=none;html=1;rounded=0;entryX=1;entryY=0.3333333333333333;entryDx=0;entryDy=0;entryPerimeter=0;exitX=0.013;exitY=0.639;exitDx=0;exitDy=0;exitPerimeter=0;" parent="1" source="EtU7es0Pb0yto69cpXa6-14" target="EtU7es0Pb0yto69cpXa6-17" edge="1">
          <mxGeometry width="50" height="50" relative="1" as="geometry">
            <mxPoint x="-120" y="3240" as="sourcePoint" />
            <mxPoint x="-70" y="3190" as="targetPoint" />
          </mxGeometry>
        </mxCell>
        <mxCell id="mUs6Y_NVp6WHR6xVFkCz-4" value="" style="endArrow=none;html=1;rounded=0;entryX=0;entryY=0.5;entryDx=0;entryDy=0;" parent="1" source="EtU7es0Pb0yto69cpXa6-17" target="EtU7es0Pb0yto69cpXa6-15" edge="1">
          <mxGeometry width="50" height="50" relative="1" as="geometry">
            <mxPoint x="-120" y="3400" as="sourcePoint" />
            <mxPoint x="-70" y="3350" as="targetPoint" />
          </mxGeometry>
        </mxCell>
        <mxCell id="mUs6Y_NVp6WHR6xVFkCz-5" value="" style="endArrow=none;html=1;rounded=0;exitX=0;exitY=0.5;exitDx=0;exitDy=0;" parent="1" source="EtU7es0Pb0yto69cpXa6-16" target="EtU7es0Pb0yto69cpXa6-17" edge="1">
          <mxGeometry width="50" height="50" relative="1" as="geometry">
            <mxPoint x="-120" y="3400" as="sourcePoint" />
            <mxPoint x="-70" y="3350" as="targetPoint" />
          </mxGeometry>
        </mxCell>
        <mxCell id="EtU7es0Pb0yto69cpXa6-44" value="" style="endArrow=none;html=1;rounded=0;entryX=0;entryY=0.5;entryDx=0;entryDy=0;" parent="1" source="EtU7es0Pb0yto69cpXa6-39" target="EtU7es0Pb0yto69cpXa6-41" edge="1">
          <mxGeometry width="50" height="50" relative="1" as="geometry">
            <mxPoint x="-525" y="3930" as="sourcePoint" />
            <mxPoint x="-490" y="3910" as="targetPoint" />
          </mxGeometry>
        </mxCell>
        <mxCell id="EtU7es0Pb0yto69cpXa6-45" value="" style="endArrow=none;html=1;rounded=0;entryX=0;entryY=0.5;entryDx=0;entryDy=0;" parent="1" target="EtU7es0Pb0yto69cpXa6-35" edge="1">
          <mxGeometry width="50" height="50" relative="1" as="geometry">
            <mxPoint x="-535" y="3960" as="sourcePoint" />
            <mxPoint x="-490" y="3910" as="targetPoint" />
          </mxGeometry>
        </mxCell>
        <mxCell id="EtU7es0Pb0yto69cpXa6-46" value="" style="endArrow=none;html=1;rounded=0;entryX=0.036;entryY=0.668;entryDx=0;entryDy=0;entryPerimeter=0;" parent="1" target="EtU7es0Pb0yto69cpXa6-36" edge="1">
          <mxGeometry width="50" height="50" relative="1" as="geometry">
            <mxPoint x="-535" y="4000" as="sourcePoint" />
            <mxPoint x="-490" y="3910" as="targetPoint" />
          </mxGeometry>
        </mxCell>
        <mxCell id="EtU7es0Pb0yto69cpXa6-47" value="" style="endArrow=none;html=1;rounded=0;entryX=0;entryY=0.5;entryDx=0;entryDy=0;" parent="1" target="EtU7es0Pb0yto69cpXa6-37" edge="1">
          <mxGeometry width="50" height="50" relative="1" as="geometry">
            <mxPoint x="-540" y="4020" as="sourcePoint" />
            <mxPoint x="-490" y="3910" as="targetPoint" />
          </mxGeometry>
        </mxCell>
        <mxCell id="EtU7es0Pb0yto69cpXa6-48" value="" style="endArrow=none;html=1;rounded=0;entryX=0;entryY=0.5;entryDx=0;entryDy=0;" parent="1" target="EtU7es0Pb0yto69cpXa6-38" edge="1">
          <mxGeometry width="50" height="50" relative="1" as="geometry">
            <mxPoint x="-540" y="4040" as="sourcePoint" />
            <mxPoint x="-490" y="3910" as="targetPoint" />
          </mxGeometry>
        </mxCell>
        <mxCell id="mUs6Y_NVp6WHR6xVFkCz-6" value="" style="endArrow=none;html=1;rounded=0;entryX=0;entryY=0.5;entryDx=0;entryDy=0;" parent="1" source="EtU7es0Pb0yto69cpXa6-25" target="EtU7es0Pb0yto69cpXa6-21" edge="1">
          <mxGeometry width="50" height="50" relative="1" as="geometry">
            <mxPoint x="230" y="3110" as="sourcePoint" />
            <mxPoint x="510" y="3170" as="targetPoint" />
          </mxGeometry>
        </mxCell>
        <mxCell id="mUs6Y_NVp6WHR6xVFkCz-7" value="" style="endArrow=none;html=1;rounded=0;entryX=0;entryY=0.5;entryDx=0;entryDy=0;" parent="1" source="EtU7es0Pb0yto69cpXa6-25" target="EtU7es0Pb0yto69cpXa6-22" edge="1">
          <mxGeometry width="50" height="50" relative="1" as="geometry">
            <mxPoint x="460" y="3220" as="sourcePoint" />
            <mxPoint x="510" y="3170" as="targetPoint" />
          </mxGeometry>
        </mxCell>
        <mxCell id="mUs6Y_NVp6WHR6xVFkCz-8" value="" style="endArrow=none;html=1;rounded=0;exitX=0;exitY=0.5;exitDx=0;exitDy=0;" parent="1" source="EtU7es0Pb0yto69cpXa6-23" target="EtU7es0Pb0yto69cpXa6-25" edge="1">
          <mxGeometry width="50" height="50" relative="1" as="geometry">
            <mxPoint x="460" y="3220" as="sourcePoint" />
            <mxPoint x="510" y="3170" as="targetPoint" />
          </mxGeometry>
        </mxCell>
        <mxCell id="mUs6Y_NVp6WHR6xVFkCz-9" value="" style="endArrow=none;html=1;rounded=0;entryX=0;entryY=0.5;entryDx=0;entryDy=0;" parent="1" source="EtU7es0Pb0yto69cpXa6-25" target="EtU7es0Pb0yto69cpXa6-24" edge="1">
          <mxGeometry width="50" height="50" relative="1" as="geometry">
            <mxPoint x="340" y="3270" as="sourcePoint" />
            <mxPoint x="390" y="3220" as="targetPoint" />
          </mxGeometry>
        </mxCell>
        <mxCell id="mUs6Y_NVp6WHR6xVFkCz-11" value="&lt;h1 style=&quot;margin-top: 0px;&quot;&gt;QA Manager&lt;/h1&gt;" style="text;html=1;whiteSpace=wrap;overflow=hidden;rounded=0;" parent="1" vertex="1">
          <mxGeometry x="-310" y="2820" width="165" height="40" as="geometry" />
        </mxCell>
        <mxCell id="mUs6Y_NVp6WHR6xVFkCz-12" value="&lt;h1 style=&quot;margin-top: 0px;&quot;&gt;Admin&lt;/h1&gt;" style="text;html=1;whiteSpace=wrap;overflow=hidden;rounded=0;" parent="1" vertex="1">
          <mxGeometry x="496.25" y="2820" width="77.5" height="40" as="geometry" />
        </mxCell>
        <mxCell id="mUs6Y_NVp6WHR6xVFkCz-13" value="&lt;h1 style=&quot;margin-top: 0px;&quot;&gt;QA Coordinator&lt;/h1&gt;" style="text;html=1;whiteSpace=wrap;overflow=hidden;rounded=0;" parent="1" vertex="1">
          <mxGeometry x="1230.25" y="2820" width="181.5" height="40" as="geometry" />
        </mxCell>
        <mxCell id="mUs6Y_NVp6WHR6xVFkCz-14" value="&lt;h1 style=&quot;margin-top: 0px;&quot;&gt;Staff&lt;/h1&gt;" style="text;html=1;whiteSpace=wrap;overflow=hidden;rounded=0;" parent="1" vertex="1">
          <mxGeometry x="-296.25" y="3580" width="72.5" height="40" as="geometry" />
        </mxCell>
        <mxCell id="mUs6Y_NVp6WHR6xVFkCz-15" value="" style="endArrow=none;html=1;rounded=0;exitX=0;exitY=0.5;exitDx=0;exitDy=0;" parent="1" source="EtU7es0Pb0yto69cpXa6-30" target="EtU7es0Pb0yto69cpXa6-32" edge="1">
          <mxGeometry width="50" height="50" relative="1" as="geometry">
            <mxPoint x="430" y="3590" as="sourcePoint" />
            <mxPoint x="480" y="3540" as="targetPoint" />
          </mxGeometry>
        </mxCell>
        <mxCell id="mUs6Y_NVp6WHR6xVFkCz-16" value="" style="endArrow=none;html=1;rounded=0;entryX=0;entryY=0.5;entryDx=0;entryDy=0;" parent="1" source="EtU7es0Pb0yto69cpXa6-32" target="EtU7es0Pb0yto69cpXa6-29" edge="1">
          <mxGeometry width="50" height="50" relative="1" as="geometry">
            <mxPoint x="1020" y="3200" as="sourcePoint" />
            <mxPoint x="1020" y="3250" as="targetPoint" />
          </mxGeometry>
        </mxCell>
        <mxCell id="EtU7es0Pb0yto69cpXa6-50" value="" style="endArrow=none;html=1;rounded=0;entryX=0;entryY=0.5;entryDx=0;entryDy=0;" parent="1" source="EtU7es0Pb0yto69cpXa6-32" target="EtU7es0Pb0yto69cpXa6-28" edge="1">
          <mxGeometry width="50" height="50" relative="1" as="geometry">
            <mxPoint x="1020" y="3190" as="sourcePoint" />
            <mxPoint x="1070" y="3140" as="targetPoint" />
          </mxGeometry>
        </mxCell>
        <mxCell id="EtU7es0Pb0yto69cpXa6-51" value="Receive notification" style="ellipse;whiteSpace=wrap;html=1;" parent="1" vertex="1">
          <mxGeometry x="1171" y="3410" width="280" height="110" as="geometry" />
        </mxCell>
        <mxCell id="EtU7es0Pb0yto69cpXa6-52" value="" style="endArrow=none;html=1;rounded=0;entryX=0;entryY=0.5;entryDx=0;entryDy=0;" parent="1" target="EtU7es0Pb0yto69cpXa6-51" edge="1">
          <mxGeometry width="50" height="50" relative="1" as="geometry">
            <mxPoint x="1020" y="3270" as="sourcePoint" />
            <mxPoint x="1070" y="3220" as="targetPoint" />
          </mxGeometry>
        </mxCell>
        <mxCell id="EtU7es0Pb0yto69cpXa6-56" value="&lt;font style=&quot;font-size: 18px;&quot;&gt;Receive post notification&lt;/font&gt;" style="ellipse;whiteSpace=wrap;html=1;" parent="1" vertex="1">
          <mxGeometry x="-395" y="4330" width="280" height="110" as="geometry" />
        </mxCell>
        <mxCell id="EtU7es0Pb0yto69cpXa6-57" value="" style="endArrow=none;html=1;rounded=0;entryX=0;entryY=0.5;entryDx=0;entryDy=0;exitX=1;exitY=1;exitDx=0;exitDy=0;exitPerimeter=0;" parent="1" source="EtU7es0Pb0yto69cpXa6-39" target="EtU7es0Pb0yto69cpXa6-56" edge="1">
          <mxGeometry width="50" height="50" relative="1" as="geometry">
            <mxPoint x="-570" y="4230" as="sourcePoint" />
            <mxPoint x="-425" y="4445" as="targetPoint" />
          </mxGeometry>
        </mxCell>
      </root>
    </mxGraphModel>
  </diagram>
</mxfile>
